# xmcd CD database file
#
# Track frame offsets:
#	150
#	3974
#	25656
#	39235
#	65555
#	78380
#	99159
#	105234
#	127731
#	150990
#	174536
#	186086
#	214282
#	227258
#	252610
#
# Disc length: 3389 seconds
#
# Revision: 1
# Processed by: cddbd v1.5.2PL0 Copyright (c) Steve Scherf et al.
# Submitted via: CDex 1.70beta3
#
DISCID=a70d3b0f
DTITLE=43rd Jam Street - アフター倉敷ジャズ2015 on Air
DYEAR=2015
DGENRE=Jazz
TTITLE0=紹介
TTITLE1=アー ユー リアル
TTITLE2=MC 1
TTITLE3=ボリビア
TTITLE4=MC 2
TTITLE5=リル ダーリン
TTITLE6=MC 3
TTITLE7=キュート
TTITLE8=ゼア ウィル ネバー ビー アナザー ユー
TTITLE9=リベレイテッド ブラザー
TTITLE10=MC 4
TTITLE11=ブラック オルフェ
TTITLE12=MC 5
TTITLE13=スイート ラブ オブ マイン
TTITLE14=MC 6 ～ エンディング
EXTD=YEAR: 2015
EXTT0=
EXTT1=
EXTT2=
EXTT3=
EXTT4=
EXTT5=
EXTT6=
EXTT7=
EXTT8=
EXTT9=
EXTT10=
EXTT11=
EXTT12=
EXTT13=
EXTT14=
PLAYORDER=
